<?xml version="1.0" encoding="utf-8"?>
<!-- Generator: Adobe Illustrator 19.1.0, SVG Export Plug-In . SVG Version: 6.00 Build 0)  -->
<!DOCTYPE svg PUBLIC "-//W3C//DTD SVG 1.1//EN" "http://www.w3.org/Graphics/SVG/1.1/DTD/svg11.dtd">
<svg version="1.1" id="レイヤー_1" xmlns="http://www.w3.org/2000/svg" xmlns:xlink="http://www.w3.org/1999/xlink" x="0px"
	 y="0px" viewBox="0 0 579.6 157.4" style="enable-background:new 0 0 579.6 157.4;" xml:space="preserve">
<style type="text/css">
	.st0{fill:#FFFFFF;}
</style>
<g>
	<g>
		<path class="st0" d="M235.6,59c-5,0-9.7,1.2-13.9,3.3l0,0c-0.2,0.1-0.4,0.2-0.7,0.2c-0.8,0-1.4-0.6-1.4-1.4V30.6
			c0-4-3.3-7.3-7.3-7.3c-4,0-7.3,3.3-7.3,7.3v81.5c0,4,3.3,7.3,7.3,7.3c2.5,0,4.6-1.2,5.9-3.1l0,0c0.3-0.4,0.7-0.6,1.2-0.6
			c0.3,0,0.5,0.1,0.8,0.2l0,0c4.5,2.6,9.8,4.1,15.3,4.1c16.8,0,30.5-13.7,30.5-30.5C266.1,72.6,252.4,59,235.6,59z M235.6,105.5
			c-8.8,0-16-7.2-16-16s7.2-16,16-16c8.8,0,16,7.2,16,16S244.4,105.5,235.6,105.5z"/>
		<path class="st0" d="M326.1,89.5c0,16.8,13.7,30.5,30.5,30.5c5.6,0,10.8-1.5,15.3-4.1l0,0c0.2-0.1,0.5-0.2,0.8-0.2
			c0.5,0,0.9,0.2,1.2,0.6l0,0c1.3,1.9,3.5,3.1,5.9,3.1c4,0,7.3-3.3,7.3-7.3V30.6c0-4-3.3-7.3-7.3-7.3c-4,0-7.3,3.3-7.3,7.3v30.5
			c0,0.8-0.7,1.4-1.4,1.4c-0.2,0-0.5-0.1-0.7-0.2l0,0c-4.2-2.1-8.9-3.3-13.9-3.3C339.7,59,326.1,72.6,326.1,89.5z M340.6,89.5
			c0-8.8,7.2-16,16-16c8.8,0,16,7.2,16,16s-7.2,16-16,16C347.8,105.5,340.6,98.3,340.6,89.5z"/>
		<path class="st0" d="M317.5,89.5c0-1.6-0.6-3-1.7-4.1l0,0l0,0l0,0l-16.9-17c-2.3-2.3-5.9-2.3-8.2,0c-2.3,2.3-2.3,5.9,0,8.2l0,0
			l7.1,7.2h-18.8c-3.2,0-5.8,2.6-5.8,5.8c0,3.2,2.6,5.8,5.8,5.8h18.8l-7.1,7.2l0,0c-2.2,2.3-2.2,5.9,0,8.2c2.3,2.3,5.9,2.3,8.2,0
			l16.9-17.1l0,0C316.9,92.5,317.5,91,317.5,89.5z"/>
		<path class="st0" d="M426.8,59c-16.8,0-30.5,13.7-30.5,30.5c0,16.8,13.7,30.5,30.5,30.5c5.6,0,10.8-1.5,15.3-4.1l0,0
			c0.2-0.1,0.5-0.2,0.8-0.2c0.5,0,0.9,0.2,1.2,0.6l0,0c1.3,1.9,3.5,3.1,5.9,3.1c4,0,7.3-3.3,7.3-7.3V89.5
			C457.3,72.6,443.7,59,426.8,59z M410.8,89.5c0-8.8,7.2-16,16-16c8.8,0,16,7.2,16,16s-7.2,16-16,16
			C418,105.5,410.8,98.3,410.8,89.5z"/>
		<path class="st0" d="M494.1,81.6h-11.2c-2.4,0-4.4-2-4.4-4.4c0-2.4,2-4.4,4.4-4.4h21.2c4,0,7.3-3.3,7.3-7.3s-3.3-7.3-7.3-7.3
			h-21.2c-10.4,0-18.9,8.5-18.9,18.9c0,10.4,8.5,18.9,18.9,18.9h11.2c2.4,0,4.4,2,4.4,4.4s-2,4.4-4.4,4.4h-21.2
			c-4,0-7.3,3.3-7.3,7.3c0,4,3.3,7.3,7.3,7.3h21.2c10.4,0,18.9-8.5,18.9-18.9S504.5,81.6,494.1,81.6z"/>
		<path class="st0" d="M550.3,54.2c-4.5,0-8.8,1-12.6,2.9c-0.2,0.1-0.3,0.1-0.5,0.1c-0.8,0-1.4-0.6-1.4-1.4V30.6
			c0-4-3.3-7.3-7.3-7.3c-4,0-7.3,3.3-7.3,7.3v81.5c0,4,3.3,7.3,7.3,7.3c4,0,7.3-3.3,7.3-7.3V83.2c0-8,6.5-14.5,14.5-14.5
			c8,0,14.5,6.5,14.5,14.5v28.9c0,4,3.3,7.3,7.3,7.3c4,0,7.3-3.3,7.3-7.3V83.2C579.3,67.2,566.3,54.2,550.3,54.2z"/>
	</g>
	<path class="st0" d="M147.6,27.6L147.6,27.6c-4-1-8.3-5-9.9-8l0,0C131.2,8.1,119,0.3,104.9,0.3c-7.2,0-14,2-19.7,5.6c0,0,0,0,0,0
		c-1.5,0.9-5.4,1.5-7.7,1l0,0c-3.4-0.8-6.9-1.3-10.5-1.3c-13.1,0-24.8,5.8-32.7,15c0,0-0.1,0-0.1,0.1c-2.5,2.9-7.2,5.4-10.7,6.9l0,0
		c-13.5,5.7-23,19-23,34.6c0,20.7,16.8,37.5,37.5,37.5c1.2,0,2.4-0.1,3.6-0.2l0,0c3.8-0.3,7.6,0.5,10.4,2c0.1,0,0.1,0,0.1,0.1
		c4.1,2.3,8.8,3.6,13.8,3.6c3.8,0,7.3-0.8,10.6-2.1l0,0c3.2-1.3,4.2-0.1,4.6,2.8c0,0.1,0.1,0.3,0.1,0.4c1.8,11,10,19.7,20.6,22.5
		l0,0c2.9,0.8,4.6,2.2,5.5,4.3l10.6,24.3l1-24.6v0c0.2-4.7,2.9-6.2,6.1-5.4l0,0c2.2,0.5,4.4,0.9,6.8,0.9c15.5,0,28.1-12.6,28.1-28.1
		c0-2.9,1.5-7.1,3.7-9.1c0,0,0-0.1,0.1-0.1c7.1-6.8,11.6-16.4,11.6-27.1C175.2,46.5,163.5,31.9,147.6,27.6z M95.7,86.2
		c-1.2,3.7-5.2,5.8-9,4.6c-3.7-1.2-5.8-5.2-4.6-9c1.2-3.7,5.2-5.8,9-4.6C94.9,78.5,96.9,82.5,95.7,86.2z M115.2,36.5
		c-0.2,0.5-0.4,1-0.6,1.5l0,0L97.5,71.5l0,0c-0.9,1.9-3.1,2.8-5.2,2.2c-2-0.7-3.2-2.7-2.9-4.7l0,0l5.8-37.2l0,0
		c0.1-0.5,0.2-1,0.4-1.6c1.8-5.4,7.6-8.4,13-6.6C114,25.3,117,31.1,115.2,36.5z"/>
</g>
</svg>
