<?xml version="1.0" encoding="utf-8"?>
<!-- Generator: Adobe Illustrator 21.1.0, SVG Export Plug-In . SVG Version: 6.00 Build 0)  -->
<svg version="1.1" id="レイヤー_1" xmlns="http://www.w3.org/2000/svg" xmlns:xlink="http://www.w3.org/1999/xlink" x="0px"
	 y="0px" viewBox="0 0 96.4 96.4" style="enable-background:new 0 0 96.4 96.4;" xml:space="preserve">
<style type="text/css">
	.st0{fill:#1484BF;}
	.st1{fill:#59ABD3;}
	.st2{fill:#E1EDF7;}
</style>
<path class="st0" d="M78.9,12.8l-18.3,0.1C58.8,7.8,54,4,48.3,4.1c-5.8,0-10.7,3.7-12.5,8.7l-18.4,0c-4.8,0-8.8,4-8.8,8.8l0.1,61.7
	c0,4.8,4,8.8,8.8,8.8l61.6,0c4.8,0,8.8-4,8.8-8.8l0-61.7C87.8,16.8,83.9,12.8,78.9,12.8z"/>
<path class="st1" d="M48.2,12.9c2.4,0,4.4,2,4.4,4.4s-2,4.4-4.4,4.4s-4.4-2-4.4-4.4S45.8,12.9,48.2,12.9z"/>
<polygon class="st2" points="39.4,74.5 21.8,56.9 28,50.6 39.4,62 68.4,33 74.6,39.3 "/>
</svg>
