<?xml version="1.0" encoding="utf-8"?>
<!-- Generator: Adobe Illustrator 21.0.0, SVG Export Plug-In . SVG Version: 6.00 Build 0)  -->
<svg version="1.1" id="レイヤー_1" xmlns="http://www.w3.org/2000/svg" xmlns:xlink="http://www.w3.org/1999/xlink" x="0px"
	 y="0px" viewBox="0 0 96.4 96.4" style="enable-background:new 0 0 96.4 96.4;" xml:space="preserve">
<style type="text/css">
	.st0{fill:#59ABD3;}
	.st1{fill:#1484BF;}
</style>
<path class="st0" d="M82.3,68.3h-8.9c-1.8,0-3.3-1.5-3.3-3.3V18.4c0-1.8,1.5-3.3,3.3-3.3h8.9c1.8,0,3.3,1.5,3.3,3.3v46.5
	C85.6,66.8,84.1,68.3,82.3,68.3z"/>
<path class="st1" d="M65.3,18.9l-38.7,6.4v0H14.4c-2,0-3.7,1.7-3.7,3.7v25.1c0,2,1.7,3.7,3.7,3.7h9.9L31.8,81
	c0.5,1.4,2.2,2.5,3.9,2.5h9.7c1.7,0,2.7-1.1,2.3-2.5L41,60.3l24.3,5.1V18.9z"/>
</svg>
