<?xml version="1.0" encoding="utf-8"?>
<!-- Generator: Adobe Illustrator 21.0.0, SVG Export Plug-In . SVG Version: 6.00 Build 0)  -->
<svg version="1.1" id="レイヤー_1" xmlns="http://www.w3.org/2000/svg" xmlns:xlink="http://www.w3.org/1999/xlink" x="0px"
	 y="0px" viewBox="0 0 96.4 96.4" style="enable-background:new 0 0 96.4 96.4;" xml:space="preserve">
<style type="text/css">
	.st0{fill:none;}
	.st1{fill:#1484BF;}
	.st2{fill:#E1EDF7;}
</style>
<path class="st0" d="M-4.7,95.3"/>
<path class="st1" d="M80.7,20.3L80.7,20.3c-2.2-0.5-4.5-2.7-5.4-4.4l0,0C71.8,9.7,65.1,5.4,57.4,5.4c-3.9,0-7.6,1.1-10.7,3l0,0
	c-0.8,0.5-2.9,0.8-4.2,0.5l0,0c-1.9-0.4-3.8-0.7-5.7-0.7c-7.1,0-13.5,3.2-17.8,8.2c-0.1,0-0.1,0.1-0.1,0.1c-1.5,1.5-3.9,2.9-5.8,3.8
	l0,0C5.8,23.4,0.6,30.6,0.6,39.1c0,11.3,9.2,20.4,20.4,20.4c0.7,0,1.3-0.1,2-0.1l0,0c2.1-0.2,4.1,0.3,5.7,1.1c0.1,0,0.1,0,0.1,0.1
	c2.2,1.3,4.8,2,7.5,2c2.1,0,4-0.4,5.8-1.1l0,0c1.7-0.7,2.3-0.1,2.5,1.5c0,0.1,0.1,0.2,0.1,0.2c1,6,5.4,10.7,11.2,12.3l0,0
	c1.6,0.4,2.5,1.2,3,2.3L64.5,91l0.5-13.4l0,0c0.1-2.6,1.6-3.4,3.3-2.9l0,0c1.2,0.3,2.4,0.5,3.7,0.5c8.4,0,15.3-6.9,15.3-15.3
	c0-1.6,0.8-3.9,2-5c0-0.1,0.1-0.1,0.1-0.1c3.8-3.8,6.3-8.9,6.3-14.8C95.8,30.6,89.4,22.6,80.7,20.3z"/>
<path class="st2" d="M52.4,51.8c-0.7,2-2.8,3.2-4.9,2.5c-2-0.6-3.2-2.8-2.5-4.9c0.6-2,2.8-3.2,4.9-2.5C52,47.6,53.1,49.8,52.4,51.8z
	"/>
<path class="st2" d="M63.1,24.7c-0.1,0.3-0.2,0.5-0.3,0.8l0,0l-9.3,18.2l0,0c-0.5,1-1.7,1.6-2.8,1.2c-1.1-0.3-1.7-1.5-1.6-2.6l0,0
	l3.2-20.3l0,0c0.1-0.3,0.1-0.5,0.2-0.9c1-2.9,4.1-4.5,7.1-3.6C62.4,18.7,64.1,21.8,63.1,24.7z"/>
<path class="st0" d="M101.1,95.3"/>
</svg>
