<?xml version="1.0" encoding="utf-8"?>
<!-- Generator: Adobe Illustrator 21.0.0, SVG Export Plug-In . SVG Version: 6.00 Build 0)  -->
<svg version="1.1" id="レイヤー_1" xmlns="http://www.w3.org/2000/svg" xmlns:xlink="http://www.w3.org/1999/xlink" x="0px"
	 y="0px" viewBox="0 0 96.4 96.4" style="enable-background:new 0 0 96.4 96.4;" xml:space="preserve">
<style type="text/css">
	.st0{fill:#1484BF;}
	.st1{fill:#59ABD3;}
	.st2{fill:#E1EDF7;}
</style>
<path class="st0" d="M78.9,13H60.6c-1.8-5.1-6.7-8.8-12.4-8.8S37.6,7.9,35.8,13H17.4c-4.8,0-8.8,4-8.8,8.8v61.5c0,4.8,4,8.8,8.8,8.8
	h61.5c4.8,0,8.8-4,8.8-8.8V21.8C87.7,17,83.8,13,78.9,13z"/>
<path class="st1" d="M48.2,13c2.4,0,4.4,2,4.4,4.4s-2,4.4-4.4,4.4s-4.4-2-4.4-4.4S45.8,13,48.2,13z"/>
<path class="st2" d="M48.2,30.6c7.3,0,13.2,5.9,13.2,13.2S55.5,57,48.2,57S35,51.1,35,43.8S40.9,30.6,48.2,30.6z"/>
<path class="st2" d="M74.6,83.3H21.8v-6.2c0-8.8,17.6-13.6,26.4-13.6s26.4,4.8,26.4,13.6V83.3z"/>
</svg>
