<?xml version="1.0" encoding="utf-8"?>
<!-- Generator: Adobe Illustrator 21.0.0, SVG Export Plug-In . SVG Version: 6.00 Build 0)  -->
<svg version="1.1" id="レイヤー_1" xmlns="http://www.w3.org/2000/svg" xmlns:xlink="http://www.w3.org/1999/xlink" x="0px"
	 y="0px" viewBox="0 0 96.4 96.4" style="enable-background:new 0 0 96.4 96.4;" xml:space="preserve">
<style type="text/css">
	.st0{fill:#1484BF;}
	.st1{fill:#E1EDF7;}
	.st2{fill:#59ABD3;}
</style>
<path class="st0" d="M84.2,12.2h-72c-4.3,0-8.1,3.8-8.1,8.1v48c0,4.3,3.7,7.9,8.1,7.9h20.1v8.1h31.9v-8.1h20.1
	c4.3,0,7.9-3.6,7.9-7.9l0.2-48C92.3,15.9,88.5,12.2,84.2,12.2z M84.2,68.3h-72v-48h72V68.3z"/>
<path class="st1" d="M12.2,68.3h72v-48h-72V68.3z M32.3,32.3h43.9v7.9H32.3V32.3z M32.3,48.2h43.9v8.1H32.3V48.2z M20.3,32.3h7.9
	v7.9h-7.9V32.3z M20.3,48.2h7.9v8.1h-7.9V48.2z"/>
<rect x="20.3" y="48.2" class="st2" width="7.9" height="8.1"/>
<rect x="20.3" y="32.3" class="st2" width="7.9" height="7.9"/>
<rect x="32.3" y="48.2" class="st2" width="43.9" height="8.1"/>
<rect x="32.3" y="32.3" class="st2" width="43.9" height="7.9"/>
</svg>
