<?xml version="1.0" encoding="utf-8"?>
<!-- Generator: Adobe Illustrator 21.0.0, SVG Export Plug-In . SVG Version: 6.00 Build 0)  -->
<svg version="1.1" id="レイヤー_1" xmlns="http://www.w3.org/2000/svg" xmlns:xlink="http://www.w3.org/1999/xlink" x="0px"
	 y="0px" viewBox="0 0 96.4 96.4" style="enable-background:new 0 0 96.4 96.4;" xml:space="preserve">
<style type="text/css">
	.st0{fill:#1484BF;}
	.st1{fill:#E1EDF7;}
</style>
<path class="st0" d="M71.8,10.2c-6.5-6.5-14.4-9.9-23.6-9.9c-9.2,0-17.3,3.4-23.8,9.9c-6.5,6.5-9.7,14.4-9.7,23.6
	c0,11.9,4.7,20.9,14.4,27.4v11c0,2.7,2,4.7,4.7,4.7h28.8c2.7,0,4.7-2,4.7-4.7v-11c9.7-6.5,14.4-15.5,14.4-27.4
	C81.7,24.6,78.3,16.7,71.8,10.2z M61.9,53.4l-4,2.9v11H38.5v-11l-4-2.9c-7-5.1-10.4-11.7-10.4-19.6c0-6.5,2.2-12.2,7-16.9
	c4.7-4.7,10.6-7.2,17.1-7.2c6.5,0,12.1,2.5,16.9,7.2c4.7,4.7,7.2,10.3,7.2,16.9C72.3,41.7,69,48.3,61.9,53.4z"/>
<path class="st1" d="M65.1,16.9c-4.7-4.7-10.4-7.2-16.9-7.2c-6.5,0-12.4,2.5-17.1,7.2c-4.7,4.7-7,10.3-7,16.9
	c0,7.9,3.3,14.5,10.4,19.6l4,2.9v11h19.3v-11l4-2.9c7-5.1,10.3-11.7,10.3-19.6C72.3,27.3,69.8,21.6,65.1,16.9z"/>
<path class="st0" d="M33.8,91.4c0,2.7,2,4.7,4.7,4.7h19.3c2.7,0,4.7-2,4.7-4.7v-4.7H33.8V91.4z"/>
</svg>
