<?xml version="1.0" encoding="utf-8"?>
<!-- Generator: Adobe Illustrator 21.0.0, SVG Export Plug-In . SVG Version: 6.00 Build 0)  -->
<svg version="1.1" id="レイヤー_1" xmlns="http://www.w3.org/2000/svg" xmlns:xlink="http://www.w3.org/1999/xlink" x="0px"
	 y="0px" width="96.4px" height="96.4px" viewBox="0 0 96.4 96.4" style="enable-background:new 0 0 96.4 96.4;"
	 xml:space="preserve">
<style type="text/css">
	.st0{fill:#1484BF;}
	.st1{fill:#E1EDF7;}
	.st2{fill:#59ABD3;}
</style>
<g id="Page-1">
	<g id="Group-18">
		<path id="Shape" class="st0" d="M84.9,12.2H12.3c-4.3,0-8.2,3.8-8.2,8.1v48c0,4.3,3.7,7.9,8.2,7.9h20.3v8.1h32.2v-8.1H85
			c4.3,0,8-3.6,8-7.9l0.2-48C93,15.9,89.2,12.2,84.9,12.2z M84.9,68.3H12.3v-48h72.6V68.3z"/>
		<path id="Shape_1_" class="st1" d="M12.1,68.2h37V20.1h-37V68.2z"/>
		<path id="Shape-Copy" class="st2" d="M49.1,68.2h36.2V20.1H49.1V68.2z"/>
		<path id="A" class="st2" d="M35.5,51.1h-9.8l-2,5.8h-4.6l9.5-25h3.9l9.6,25h-4.6L35.5,51.1z M27,47.6h7.3l-3.7-10.4L27,47.6z"/>
		<path id="B" class="st1" d="M58.1,56.9v-25h8.6c2.9,0,5,0.6,6.5,1.7c1.5,1.1,2.2,2.8,2.2,5.1c0,1.1-0.3,2.2-0.9,3.1
			c-0.6,0.9-1.5,1.6-2.7,2.1c1.4,0.4,2.4,1.1,3.2,2.1c0.7,1,1.1,2.2,1.1,3.7c0,2.3-0.8,4.2-2.3,5.4c-1.5,1.3-3.7,1.9-6.5,1.9H58.1z
			 M62.5,45.6v7.8h4.9c1.4,0,2.4-0.3,3.2-1c0.8-0.7,1.2-1.6,1.2-2.8c0-2.6-1.3-3.9-4-4H62.5z M62.5,42.4h4.3c1.4,0,2.4-0.3,3.2-0.9
			s1.2-1.5,1.2-2.6c0-1.2-0.4-2.1-1.1-2.7c-0.7-0.5-1.8-0.8-3.3-0.8h-4.3V42.4z"/>
	</g>
</g>
</svg>
