<?xml version="1.0" encoding="utf-8"?>
<!-- Generator: Adobe Illustrator 21.0.0, SVG Export Plug-In . SVG Version: 6.00 Build 0)  -->
<svg version="1.1" id="レイヤー_1" xmlns="http://www.w3.org/2000/svg" xmlns:xlink="http://www.w3.org/1999/xlink" x="0px"
	 y="0px" viewBox="0 0 96.4 96.4" style="enable-background:new 0 0 96.4 96.4;" xml:space="preserve">
<style type="text/css">
	.st0{fill:#59ABD3;}
	.st1{fill:#E1EDF7;}
	.st2{fill:#1484BF;}
</style>
<path class="st0" d="M67.7,48.2c8.4,0,15.2-6.8,15.2-15.2s-6.8-15.2-15.2-15.2s-15.2,6.8-15.2,15.2S59.4,48.2,67.7,48.2z"/>
<path class="st1" d="M67.7,24.4c4.8,0,8.7,3.9,8.7,8.7s-3.9,8.7-8.7,8.7s-8.7-3.9-8.7-8.7S63,24.4,67.7,24.4z"/>
<path class="st2" d="M28.7,48.2c8.4,0,15.2-6.8,15.2-15.2S37,17.9,28.7,17.9s-15.2,6.8-15.2,15.2S20.3,48.2,28.7,48.2z"/>
<path class="st1" d="M28.7,24.4c4.8,0,8.7,3.9,8.7,8.7s-3.9,8.7-8.7,8.7S20,37.8,20,33.1S23.9,24.4,28.7,24.4z"/>
<path class="st1" d="M89.5,72H56.8v-5.5c0-2-0.9-3.8-2.3-5.3c3.8-1.3,8.5-2.3,13.2-2.3c10.6,0,21.8,5.3,21.8,7.6V72z"/>
<path class="st2" d="M56.9,72v-5.3c0-1.6-0.8-3.5-2.2-5.3c-1.6-1.8-4.5-3.6-6.5-4.5c-6.5-3.1-13-4.5-19.5-4.5
	c-5.7,0-11.8,1.4-18.5,4.1c-6.5,2.6-9.8,6.1-9.8,10.2v11.8h56.6C57,78.3,56.9,72,56.9,72z M50.4,72H6.9v-5.3c0-1.4,2.4-3.1,7.1-4.9
	c5.1-1.9,10-2.8,14.6-2.8c4.7,0,9.6,1,14.4,2.8c4.9,1.8,7.3,3.5,7.3,4.9V72z"/>
<path class="st0" d="M86.2,56.5c-6.7-2.7-12.8-4.1-18.5-4.1c-6.5,0-13,1.4-19.5,4.5h0c2,0.9,4.9,2.7,6.5,4.5c0,0,0,0,0,0
	c5.1-1.6,9.4-2.4,13-2.4c4.7,0,9.6,1,14.4,2.8c4.9,1.8,7.3,3.5,7.3,4.9V72H56.9h0c0,0,0,6.3,0,6.5H96V66.7
	C96,62.6,92.8,59.1,86.2,56.5z"/>
<path class="st1" d="M50.4,72H6.7v-5.5c0-2.4,11.2-7.6,21.8-7.6s21.8,5.3,21.8,7.6V72z"/>
</svg>
