<?xml version="1.0" encoding="utf-8"?>
<!-- Generator: Adobe Illustrator 21.0.0, SVG Export Plug-In . SVG Version: 6.00 Build 0)  -->
<svg version="1.1" id="レイヤー_1" xmlns="http://www.w3.org/2000/svg" xmlns:xlink="http://www.w3.org/1999/xlink" x="0px"
	 y="0px" viewBox="0 0 96.4 96.4" style="enable-background:new 0 0 96.4 96.4;" xml:space="preserve">
<style type="text/css">
	.st0{fill:#59ABD3;}
	.st1{fill:#1484BF;}
	.st2{fill:#E1EDF7;}
</style>
<path class="st0" d="M16,24.1H8.2v56.1c0,4.3,3.6,7.9,7.9,7.9h56.1v-7.9H16V24.1z"/>
<path class="st1" d="M88,64V16c0-4.3-3.6-7.9-7.9-7.9h-48c-4.3,0-8.1,3.6-8.1,7.9v48c0,4.3,3.8,8.1,8.1,8.1h48
	C84.5,72.1,88,68.3,88,64z M32.2,64l12-15.9L52.2,59L64,44.2L80.2,64H32.2z"/>
<polygon class="st2" points="52.2,59 44.2,48.1 32.2,64 80.2,64 64,44.2 "/>
</svg>
