<?xml version="1.0" encoding="utf-8"?>
<!-- Generator: Adobe Illustrator 21.1.0, SVG Export Plug-In . SVG Version: 6.00 Build 0)  -->
<svg version="1.1" id="レイヤー_2_1_" xmlns="http://www.w3.org/2000/svg" xmlns:xlink="http://www.w3.org/1999/xlink" x="0px"
	 y="0px" viewBox="0 0 96.4 96.4" style="enable-background:new 0 0 96.4 96.4;" xml:space="preserve">
<style type="text/css">
	.st0{fill:#1484BF;}
	.st1{fill:#E1EDF7;}
	.st2{fill:#59ABD3;}
</style>
<g id="レイヤー_2">
	<g id="レイヤー_1-2">
		<g id="Page-1">
			<g id="Group-18">
				<path id="Shape" class="st0" d="M84.2,12.2H12.2c-4.4,0.1-8,3.7-8.1,8.1v48c0.1,4.4,3.7,7.9,8.1,7.9h20.1v8.1h31.9v-8.1h20
					c4.3,0,7.8-3.5,7.9-7.9l0.2-48C92.2,15.9,88.6,12.3,84.2,12.2z M84.2,68.3H12.2v-48h71.9V68.3z"/>
				<path id="Shape-2" class="st1" d="M12.2,68.2h72V20.3h-72V68.2z"/>
			</g>
		</g>
		<path class="st2" d="M32,33.3v19.5c0,1.8,1.4,3.3,3.2,3.3H58l6.5,6.5V33.3c0-1.8-1.4-3.3-3.2-3.3c0,0,0,0,0,0h-26
			C33.5,30,32,31.5,32,33.3z M38.5,46.4H58v3.3H38.5V46.4z M38.5,41.5H58v3.3H38.5V41.5z M38.5,36.6H58v3.3H38.5V36.6z"/>
	</g>
</g>
</svg>
