<?xml version="1.0" encoding="utf-8"?>
<!-- Generator: Adobe Illustrator 21.0.0, SVG Export Plug-In . SVG Version: 6.00 Build 0)  -->
<svg version="1.1" id="レイヤー_1" xmlns="http://www.w3.org/2000/svg" xmlns:xlink="http://www.w3.org/1999/xlink" x="0px"
	 y="0px" viewBox="0 0 96.4 96.4" style="enable-background:new 0 0 96.4 96.4;" xml:space="preserve">
<style type="text/css">
	.st0{fill:#1484BF;}
	.st1{fill:#E1EDF7;}
</style>
<path class="st0" d="M94.5,32.5l-9.7-16.6c-0.7-1.1-1.6-1.4-2.9-0.9L70,19.7c-2.5-2-5.2-3.6-8.1-4.7L60.1,2.3c-0.2-1.4-1.1-2-2.2-2
	H38.5c-1.3,0-2.1,0.7-2.2,2l-1.8,12.6c-2.2,0.9-5,2.5-8.1,4.7l-11.9-4.7c-1.3-0.5-2.3-0.2-2.9,0.9L1.8,32.5
	c-0.7,1.6-0.7,2.5,0.5,3.2l10.1,7.9c-0.2,2-0.2,7.4,0,9.5L2.3,60.8c-1.1,0.7-1.1,1.6-0.5,3.2l9.7,16.7c0.7,1.1,1.6,1.4,2.9,0.9
	l11.9-4.7c2.5,2,5.2,3.6,8.1,4.7l1.8,12.6c0.2,1.4,0.9,2,2.2,2h19.4c1.1,0,2.1-0.7,2.2-2l1.8-12.6c2.2-0.9,5-2.5,8.1-4.7l11.9,4.7
	c1.3,0.5,2.3,0.2,2.9-0.9L94.5,64c0.7-1.6,0.7-2.5-0.4-3.2L84,53c0.2-2,0.2-7.4,0-9.5l10.1-7.9C95.2,35,95.2,34.1,94.5,32.5z
	 M60.1,60.2c-6.5,6.5-17.3,6.5-23.8,0c-6.5-6.5-6.5-17.3,0-23.8c6.5-6.5,17.3-6.5,23.8,0C66.6,42.8,66.6,53.6,60.1,60.2z"/>
<path class="st1" d="M36,36.3c-6.5,6.5-6.5,17.3,0,23.8c6.5,6.5,17.3,6.5,23.8,0c6.5-6.5,6.5-17.3,0-23.8
	C53.3,29.8,42.5,29.8,36,36.3z"/>
</svg>
