<?xml version="1.0" encoding="utf-8"?>
<!-- Generator: Adobe Illustrator 23.0.1, SVG Export Plug-In . SVG Version: 6.00 Build 0)  -->
<svg version="1.1" id="レイヤー_1" xmlns="http://www.w3.org/2000/svg" xmlns:xlink="http://www.w3.org/1999/xlink" x="0px"
	 y="0px" viewBox="0 0 300 300" style="enable-background:new 0 0 300 300;" xml:space="preserve">
<style type="text/css">
	.st0{fill:url(#SVGID_1_);}
</style>
<linearGradient id="SVGID_1_" gradientUnits="userSpaceOnUse" x1="150" y1="273.1807" x2="150" y2="38.9773">
	<stop  offset="0.0222" style="stop-color:#AA8DC0"/>
	<stop  offset="0.9604" style="stop-color:#7CB3CA"/>
</linearGradient>
<path class="st0" d="M283.21,197.61l-13.89-19.73c5.96-6.19,10.6-13.27,13.89-20.86V197.61z M15.98,209.76V54.95h251.25v22.44
	c3.3,3.15,6.33,6.62,9,10.41c2.79,3.97,5.1,8.14,6.98,12.45V54.22c0-8.42-6.83-15.25-15.25-15.25H15.25C6.83,38.98,0,45.8,0,54.22
	v156.27c0,8.42,6.83,15.25,15.25,15.25h89.34v27.11H69.57v20.33h144.07v-20.33h-35.01v-27.11h89.34c0.66,0,1.31-0.06,1.96-0.14
	l-11.15-15.84H15.98z M217.57,113.59l25.32-29.04c0.47,0.25,0.95,0.49,1.41,0.75c6.38,3.68,11.98,8.72,16.33,14.9
	c0.18,0.25,0.34,0.51,0.51,0.76l-28.78,33.01c0.06,0.68,0.09,1.36,0.09,2.05c0,13.45-10.94,24.38-24.38,24.38
	c-12.61,0-23.01-9.62-24.26-21.9l-16.52-12.3c0.02-0.29,0.03-0.57,0.06-0.86c0.13-1.45,0.31-2.9,0.56-4.36
	c1.19-6.82,3.68-13.21,7.3-18.87c0.09-0.14,0.19-0.27,0.28-0.41l18.96,14.12c1.28-0.86,2.63-1.61,4.07-2.23
	c2.94-1.26,6.17-1.96,9.57-1.96c1.57,0,3.11,0.16,4.6,0.44C214.36,112.41,216,112.92,217.57,113.59z M220.17,136.03
	c0-6.68-5.44-12.12-12.12-12.12s-12.11,5.43-12.11,12.12c0,6.68,5.43,12.12,12.11,12.12S220.17,142.71,220.17,136.03z
	 M298.38,227.15l-35.07-49.83c24.04-22.24,28.52-59.36,9.16-86.88c-12.93-18.36-33.47-28.18-54.34-28.18v12.27
	c9.66,0,18.99,2.59,27.13,7.3c6.71,3.88,12.61,9.18,17.18,15.68c0.26,0.36,0.49,0.74,0.74,1.11c7.76,11.61,10.72,25.51,8.32,39.31
	c-2.48,14.24-10.35,26.67-22.17,34.99c-9.17,6.46-19.92,9.87-31.09,9.87c-17.62,0-34.19-8.59-44.31-22.97
	c-7.43-10.55-10.78-23.12-9.65-35.83c0.14-1.53,0.32-3.06,0.59-4.58c1.25-7.18,3.87-13.89,7.68-19.86c3.74-5.87,8.63-11,14.49-15.13
	c9.17-6.46,19.92-9.87,31.09-9.87l0-12.27c0,0,0,0,0,0c-13.2,0-26.54,3.93-38.15,12.1c-12.81,9.02-21.45,21.75-25.51,35.71
	c-0.53,1.84-0.99,3.69-1.36,5.57c-3.44,17.21-0.1,35.73,10.79,51.22c12.93,18.36,33.47,28.18,54.34,28.18
	c10.4,0,20.88-2.45,30.54-7.48l35.07,49.82c2.83,4.01,8.37,4.98,12.39,2.15C300.24,236.71,301.2,231.17,298.38,227.15z
	 M148.48,122.88c-0.3,3.5-0.34,6.99-0.12,10.45l-21.09,21.93c0.26,0.83,0.4,1.71,0.4,2.63c0,4.88-3.97,8.85-8.85,8.85
	c-4.86,0-8.81-3.94-8.85-8.79l-27.94-15.97c-0.1,0.09-0.19,0.18-0.29,0.26c-1.61,1.34-3.59,2.06-5.66,2.06
	c-0.27,0-0.54-0.01-0.81-0.04c-0.62-0.06-1.22-0.18-1.8-0.35l-28.51,38.23c0.73,1.28,1.15,2.77,1.15,4.34
	c0,4.88-3.97,8.85-8.85,8.85s-8.85-3.97-8.85-8.85s3.97-8.85,8.85-8.85c0.68,0,1.33,0.08,1.97,0.23l28.83-38.66
	c-0.66-1.4-0.95-2.96-0.81-4.54c0.21-2.35,1.33-4.49,3.14-6c1.81-1.52,4.11-2.23,6.46-2.02c2.35,0.21,4.49,1.33,6,3.14
	c1.33,1.59,2.05,3.56,2.06,5.61l27.94,15.97c1.57-1.44,3.66-2.32,5.96-2.32c1.33,0,2.58,0.3,3.71,0.83L148.48,122.88z M42.22,186.49
	c0-2.74-2.22-4.96-4.96-4.96s-4.96,2.22-4.96,4.96s2.22,4.96,4.96,4.96S42.22,189.23,42.22,186.49z M81.03,135.45
	c0-2.74-2.22-4.96-4.96-4.96s-4.96,2.22-4.96,4.96s2.22,4.96,4.96,4.96S81.03,138.19,81.03,135.45z M123.77,157.88
	c0-2.5-1.86-4.55-4.26-4.89c-0.23-0.03-0.46-0.07-0.7-0.07c-0.81,0-1.56,0.21-2.24,0.56c-1.61,0.82-2.72,2.47-2.72,4.4
	c0,1.03,0.31,1.98,0.85,2.77c0.83,1.23,2.2,2.05,3.77,2.16c0.12,0.01,0.23,0.03,0.34,0.03c0.48,0,0.93-0.09,1.36-0.21
	c1.7-0.49,3.03-1.85,3.45-3.58C123.71,158.67,123.77,158.29,123.77,157.88z"/>
</svg>
